<svg xmlns="http://www.w3.org/2000/svg" width="46" height="35" viewBox="0 0 46 35" fill="none">
<path d="M46 17.5C46 18.2328 45.7092 18.9357 45.1916 19.4538C44.674 19.972 43.972 20.2632 43.24 20.2632H2.76C2.028 20.2632 1.32599 19.972 0.808385 19.4538C0.290785 18.9357 0 18.2328 0 17.5C0 16.7672 0.290785 16.0643 0.808385 15.5462C1.32599 15.028 2.028 14.7368 2.76 14.7368H43.24C43.972 14.7368 44.674 15.028 45.1916 15.5462C45.7092 16.0643 46 16.7672 46 17.5ZM2.76 5.52632H43.24C43.972 5.52632 44.674 5.2352 45.1916 4.71701C45.7092 4.19881 46 3.49599 46 2.76316C46 2.03032 45.7092 1.3275 45.1916 0.80931C44.674 0.291117 43.972 0 43.24 0H2.76C2.028 0 1.32599 0.291117 0.808385 0.80931C0.290785 1.3275 0 2.03032 0 2.76316C0 3.49599 0.290785 4.19881 0.808385 4.71701C1.32599 5.2352 2.028 5.52632 2.76 5.52632ZM43.24 29.4737H2.76C2.028 29.4737 1.32599 29.7648 0.808385 30.283C0.290785 30.8012 0 31.504 0 32.2368C0 32.9697 0.290785 33.6725 0.808385 34.1907C1.32599 34.7089 2.028 35 2.76 35H43.24C43.972 35 44.674 34.7089 45.1916 34.1907C45.7092 33.6725 46 32.9697 46 32.2368C46 31.504 45.7092 30.8012 45.1916 30.283C44.674 29.7648 43.972 29.4737 43.24 29.4737Z" fill="white"/>
</svg>